<?xml version="1.0" encoding="UTF-8"?><svg xmlns="http://www.w3.org/2000/svg" viewBox="107 215 257 242"><rect x="107" y="215" width="257" height="242" rx="38.55" fill="#2F6C5D"/><path fill="#ED8436" d="M231.507 287.586C239.555 300.092 237.741 306.661 224.548 313.31C225.441 316.196 225.468 319.378 225.642 322.411C219.268 332.243 219.636 327.714 211.608 332.997C210.164 333.947 212.526 345.486 203.556 347.444C200.292 348.156 196.987 347.626 194.464 349.604C186.73 370.51 174.21 363.639 160.685 351.884C156.817 355.977 145.09 366.611 143.917 370.553C145.022 378.32 165.501 395.499 171.667 402.425C176.206 407.523 185.879 417.558 192.587 418.654C201.654 416.606 212.776 396.634 225.792 389.783C236.453 385.99 247.671 382.541 257.829 377.538C265.434 373.793 307.814 345.231 310.78 339.403C311.89 337.221 311.758 332.957 310.939 330.703C310.511 329.526 309.82 329.032 308.936 328.172C300.625 325.737 291.423 336.945 288.757 332.699C290.905 324.311 314.401 320.514 307.116 306.828C301.812 296.863 282.813 315.098 279.496 312.084C281.718 304.727 314.42 291.609 293.712 281.882C285.877 278.202 276.202 294.366 268.691 293.783L267.408 292.627C269.07 284.994 290.309 278.789 285.133 268.482C283.926 266.079 280.713 263.863 277.742 263.387C276.778 263.226 275.803 263.143 274.826 263.14C259.114 273.011 249.99 285.494 231.507 287.586ZM231.227 393.404C242.33 400.062 254.143 400.773 261.393 407.363C263.528 409.816 272.141 420.237 275.594 419.006C286.003 415.295 322.341 379.77 324.404 371.004C323.229 365.383 311.653 355.907 306.766 350.282C291.287 361.562 277.656 373.677 260.492 382.439C250.987 387.29 239.614 389.447 231.227 393.404ZM162.301 327.607C141.102 336.057 172.779 356.33 182.09 358.294C194.808 349.595 183.996 342.716 175.717 336.097C171.997 333.123 166.766 329.156 162.301 327.607ZM230.804 282.154C242.693 280.876 252.121 273.325 260.985 265.508C254.823 260.773 250.727 256.853 242.668 257.326C237.104 259.578 212.254 266.224 211.338 271.202C209.334 282.095 223.518 282.226 230.804 282.154ZM213.655 326.399C218.111 324.12 222.907 318.408 219.152 314.399C213.257 308.107 183.795 284.101 177.113 283.46L176.593 283.436C176.246 283.435 175.898 283.435 175.551 283.434C172.97 285.319 170.03 287.367 169.463 290.764C169.123 292.726 169.597 294.743 170.777 296.348C174.2 301.088 202.934 323.077 210.57 326.369C210.957 326.536 213.113 326.44 213.655 326.399ZM165.493 304.455C160.823 308.767 156.443 313.554 162.994 319.332C170.34 325.813 190.365 343.489 199.592 343.553C218.907 331.162 178.681 312.92 170.886 305.202C170.034 304.358 166.811 304.416 165.493 304.455ZM191.951 266.182C186.95 268.6 182.097 272.91 185.83 278.662C190.766 286.266 215.306 305.626 223.335 307.588C227.07 306.5 233.338 302.833 231.735 297.862C228.91 289.102 215.999 287.562 211.298 283.53C204.108 277.363 205.439 267.229 191.951 266.182Z"/></svg>