<?xml version="1.0" encoding="utf-8" ?><svg xmlns="http://www.w3.org/2000/svg" xmlns:xlink="http://www.w3.org/1999/xlink" width="1536" height="672" viewBox="0 0 1536 672"><path fill="#2F6C5D" d="M142.094 215.628L270.004 215.392C291.52 215.318 317.728 214.262 338.985 216.545C343.413 217.021 349.948 221.958 353.242 225.219C361.759 233.651 363.729 238.918 363.771 250.787C363.907 289.996 364.099 329.005 363.945 368.23C363.225 388.819 365.726 409.98 362.927 430.368C362.286 435.041 358.235 441.632 354.959 445.152C347.665 452.989 339.076 456.733 328.486 456.838L195.654 456.769C177.169 456.773 156.167 457.399 137.766 456.301C131.728 455.941 123.295 451.282 118.973 447.075C111.177 439.488 107.691 432.148 107.681 421.095C107.649 387.518 107.771 353.807 107.737 320.243L107.706 274.429C107.727 258.744 105.377 238.158 117.247 226.571C124.832 219.167 131.421 215.906 142.094 215.628ZM231.507 287.586C239.555 300.092 237.741 306.661 224.548 313.31C225.441 316.196 225.468 319.378 225.642 322.411C219.268 332.243 219.636 327.714 211.608 332.997C210.164 333.947 212.526 345.486 203.556 347.444C200.292 348.156 196.987 347.626 194.464 349.604C186.73 370.51 174.21 363.639 160.685 351.884C156.817 355.977 145.09 366.611 143.917 370.553C145.022 378.32 165.501 395.499 171.667 402.425C176.206 407.523 185.879 417.558 192.587 418.654C201.654 416.606 212.776 396.634 225.792 389.783C236.453 385.99 247.671 382.541 257.829 377.538C265.434 373.793 307.814 345.231 310.78 339.403C311.89 337.221 311.758 332.957 310.939 330.703C310.511 329.526 309.82 329.032 308.936 328.172C300.625 325.737 291.423 336.945 288.757 332.699C290.905 324.311 314.401 320.514 307.116 306.828C301.812 296.863 282.813 315.098 279.496 312.084C281.718 304.727 314.42 291.609 293.712 281.882C285.877 278.202 276.202 294.366 268.691 293.783L267.408 292.627C269.07 284.994 290.309 278.789 285.133 268.482C283.926 266.079 280.713 263.863 277.742 263.387C276.778 263.226 275.803 263.143 274.826 263.14C259.114 273.011 249.99 285.494 231.507 287.586ZM231.227 393.404C242.33 400.062 254.143 400.773 261.393 407.363C263.528 409.816 272.141 420.237 275.594 419.006C286.003 415.295 322.341 379.77 324.404 371.004C323.229 365.383 311.653 355.907 306.766 350.282C291.287 361.562 277.656 373.677 260.492 382.439C250.987 387.29 239.614 389.447 231.227 393.404ZM162.301 327.607C141.102 336.057 172.779 356.33 182.09 358.294C194.808 349.595 183.996 342.716 175.717 336.097C171.997 333.123 166.766 329.156 162.301 327.607ZM230.804 282.154C242.693 280.876 252.121 273.325 260.985 265.508C254.823 260.773 250.727 256.853 242.668 257.326C237.104 259.578 212.254 266.224 211.338 271.202C209.334 282.095 223.518 282.226 230.804 282.154ZM213.655 326.399C218.111 324.12 222.907 318.408 219.152 314.399C213.257 308.107 183.795 284.101 177.113 283.46L176.593 283.436C176.246 283.435 175.898 283.435 175.551 283.434C172.97 285.319 170.03 287.367 169.463 290.764C169.123 292.726 169.597 294.743 170.777 296.348C174.2 301.088 202.934 323.077 210.57 326.369C210.957 326.536 213.113 326.44 213.655 326.399ZM165.493 304.455C160.823 308.767 156.443 313.554 162.994 319.332C170.34 325.813 190.365 343.489 199.592 343.553C218.907 331.162 178.681 312.92 170.886 305.202C170.034 304.358 166.811 304.416 165.493 304.455ZM191.951 266.182C186.95 268.6 182.097 272.91 185.83 278.662C190.766 286.266 215.306 305.626 223.335 307.588C227.07 306.5 233.338 302.833 231.735 297.862C228.91 289.102 215.999 287.562 211.298 283.53C204.108 277.363 205.439 267.229 191.951 266.182Z"/><path fill="#2F6C5D" d="M735.873 303.547C758.875 301.696 779.094 318.673 781.25 341.649C783.406 364.624 766.699 385.067 743.755 387.528C728.639 389.149 713.82 382.511 704.967 370.152C696.114 357.793 694.597 341.626 700.996 327.836C707.395 314.046 720.72 304.766 735.873 303.547ZM743.558 368.75C751.945 367.189 758.846 361.242 761.628 353.177C764.409 345.112 762.642 336.175 757 329.776C751.359 323.377 742.713 320.503 734.364 322.252C721.654 324.915 713.454 337.308 715.973 350.047C718.492 362.786 730.792 371.125 743.558 368.75Z"/><path fill="#2F6C5D" d="M1206.79 303.73C1229.81 300.477 1251.12 316.503 1254.37 339.525C1257.63 362.548 1241.6 383.851 1218.58 387.108C1195.55 390.366 1174.25 374.34 1170.99 351.314C1167.74 328.289 1183.76 306.984 1206.79 303.73ZM1218.69 368.937C1232.65 363.947 1239.41 350.136 1234.06 336.243C1231.87 330.483 1227.42 325.874 1221.73 323.495C1216.38 321.216 1212.27 321.542 1206.7 321.954C1179.57 331.216 1185.19 374.065 1218.69 368.937Z"/><path fill="#2F6C5D" d="M930.36 304.771C931.271 304.673 932.185 304.618 933.101 304.606C963.265 304.286 974.849 324.324 975.318 351.886L911.988 351.847C920.254 373.628 941.964 374.962 958.591 361.647C962.3 365.207 966.369 368.862 969.294 373.06C945.144 397.474 898.186 387.465 893.129 351.447C889.758 327.438 906.023 307.425 930.36 304.771ZM911.472 339.164L939.375 339.109C942.598 339.148 952.765 339.516 955.286 338.791C955.916 336.706 955.015 332.751 953.927 330.913C948.691 322.068 938.645 320.833 929.614 321.066C918.244 325.112 915.578 327.871 911.472 339.164Z"/><path fill="#2F6C5D" d="M572.688 305.518C585.043 303.696 600.703 304.859 609.89 314.214C613.374 317.767 615.852 322.182 617.071 327.006C619.407 336.001 618.681 373.058 618.677 384.811L600.31 384.844C600.246 382.184 600.381 378.967 600.419 376.257C587.257 388.811 567.634 389.84 552.914 379.335C538.535 365.873 545.42 344.384 564.428 340.652C575.992 338.382 587.587 339.109 599.318 339.21C598.802 336.528 598.521 333.022 598.218 330.248C588.609 315.501 567.719 321.497 555.255 328.665L548.62 314.476C557.522 308.278 561.917 307.202 572.688 305.518ZM588.997 370.739C594.021 368.039 595.587 366.503 599.182 361.798L599.129 351.726C591.365 351.71 581.321 351.455 573.763 351.948C555.133 357.417 564.299 376.764 588.997 370.739Z"/><path fill="#ED8436" d="M1295.35 281.528C1309.84 280.132 1323.02 282.058 1335.77 289.166C1334.86 293.214 1331.94 300.901 1330.48 305.096C1319.57 301.694 1313.54 297.516 1300.92 298.215C1293.35 298.633 1280.36 301.48 1281.38 311.731C1282.53 323.258 1309.15 325.644 1318.36 329.492C1330.04 333.734 1341.28 341.24 1340.63 355.491C1339.42 382.227 1318.23 386.347 1296.45 386.506C1283.41 386.22 1270.76 382.064 1260.09 374.565L1266.92 358.949C1269.19 360.414 1271.57 361.994 1274.02 363.349C1285.97 369.965 1308.57 375.008 1319.33 363.86C1327.94 354.173 1313.08 347.209 1305.41 344.951C1294.03 341.603 1282.48 340.19 1272.59 333.119C1255.05 320.575 1259.21 294.901 1277.99 286.116C1284.64 283.004 1288 282.429 1295.35 281.528Z"/><path fill="#2F6C5D" d="M798.007 274.505C804.043 274.26 810.819 274.437 816.912 274.462C816.569 286.242 817.425 301.308 817.409 313.711C832.908 303.425 852.404 299.306 867.987 313.383C879.091 323.414 877.637 343.174 877.644 357.081L877.619 384.701L858.078 384.685L857.88 348.563C857.801 340.786 858.196 333.73 852.571 327.545C845.168 319.404 831.399 320.053 823.711 327.35C821.159 329.777 819.355 332.884 818.512 336.304C817.14 341.879 817.614 376.592 817.485 384.731L798.037 384.721L798.007 274.505Z"/><path fill="#2F6C5D" d="M1079.9 274.106C1085 274.09 1090.11 274.177 1095.21 274.367C1095.38 287.738 1095.48 301.11 1095.49 314.482C1102.86 307.813 1109.67 304.736 1119.55 304.635C1155.26 304.273 1155.29 331.241 1155.33 357.127C1155.3 366.36 1155.34 375.594 1155.45 384.827L1135.86 384.791L1135.56 348.375C1135.67 340.594 1136.18 333.37 1130.49 327.178C1123.04 319.051 1108.65 320.717 1101.29 327.971C1098.91 330.292 1097.21 333.212 1096.35 336.423C1094.76 342.581 1095.56 375.859 1095.61 384.786L1076.24 384.785C1076.24 372.794 1074.7 278.813 1076.71 274.529L1079.9 274.106Z"/><path fill="#ED8436" d="M1350.64 282.337C1369.53 282.472 1388.42 282.494 1407.31 282.403C1406.9 300.345 1409.28 354.869 1404.55 368.053C1402.03 375.07 1397.02 381.18 1390.13 384.252C1379.38 389.046 1365.49 386.699 1354.92 382.564C1349.4 379.423 1346.17 376.241 1341.75 371.799C1345.28 366.632 1347.92 363.539 1352.07 358.804C1357.39 364.356 1363.22 369.33 1371.34 369.478C1375.77 369.559 1380.84 368.166 1384.04 364.936C1389.78 359.141 1387.71 310.691 1387.7 299.493C1376.29 300.194 1360.83 299.804 1349.24 299.7C1349.14 294.345 1348.89 288.475 1349.39 283.188L1350.64 282.337Z"/><path fill="#2F6C5D" d="M1022.01 304.778C1039.36 303.187 1053.59 307.726 1062.15 323.631C1057.2 326.584 1052.22 329.47 1047.19 332.288C1038.67 320.744 1022.76 317.503 1011.3 327.452C1001.93 335.583 1002.98 354.828 1012 363.57C1016.28 367.736 1022.1 369.945 1028.06 369.67C1036.74 369.323 1042.08 365.04 1047.56 359.076C1052.21 360.969 1058.35 365.162 1062.74 367.958C1062.09 368.966 1061.41 369.953 1060.69 370.918C1047.49 388.662 1016.88 391.08 1000.61 377.941C971.322 354.29 984.123 309.193 1022.01 304.778Z"/><path fill="#2F6C5D" d="M440.131 286.85L452.706 286.892L452.983 305.857L474.014 305.75C473.979 311.213 474.224 315.911 474.565 321.371C468.806 321.787 459.026 321.578 452.958 321.615C452.945 333.147 451.469 351.771 453.688 362.933C455.673 372.92 467.185 370.101 474.699 367.316C476.995 372.629 478.229 376.003 479.935 381.536C468.619 387.196 449.405 388.532 440.295 379.195C429.478 368.109 433.219 335.967 433.225 321.332C429.238 321.017 424.076 321.068 419.987 321.004L420.016 306.088L433.215 305.83C433.465 299.5 432.085 293.459 434.177 288.29C436.453 286.573 436.762 287.105 440.131 286.85Z"/><path fill="#2F6C5D" d="M651.528 286.82L664.372 286.728C663.933 291.656 664.374 300.765 664.479 305.998L686.155 306.04L686.297 321.038C679.037 321.218 671.773 321.276 664.511 321.211C664.518 322.99 664.323 325.659 664.476 327.332C666.011 344.053 655.802 380.449 686.619 367.292C689 372.416 689.966 375.4 691.629 380.834C689.69 385.694 674.722 386.719 670.071 386.218C663.205 385.478 657.176 384.207 652.104 379.063C644.048 370.893 645.127 359.716 645.088 349.235C645.127 340.099 645.164 330.858 645.212 321.674L632.281 321.522L632.301 306.08C637.029 305.991 640.535 305.801 645.237 305.311C645.673 299.102 644.196 293.978 645.827 288.587C647.787 286.549 647.909 287.181 651.528 286.82Z"/><path fill="#2F6C5D" d="M512.596 316.484C512.824 316.245 513.055 316.01 513.288 315.777C522.539 306.51 527.905 305.143 540.638 305.16C541.249 311.13 541.319 316.556 541.432 322.528C523.479 323.411 513.758 326.944 513.648 347.063L513.65 384.793L494.155 384.819C494.804 360.307 492.908 329.883 494.298 306.414L495.317 305.52C500.796 305.275 506.643 305.648 512.152 305.893L512.596 316.484Z"/></svg>